<svg width="750" height="750" viewBox="0 0 750 750" fill="none" xmlns="http://www.w3.org/2000/svg">
<rect width="750" height="750" rx="219" fill="#2E4052"/>
<path d="M448.5 344.5C441.6 307.3 409.2 279 370 279C357.7 279 346.1 282 335.7 287C318.3 262.9 290.1 247 258 247C205 247 162 290 162 343C162 343.5 162.2 344.1 162.2 344.6C125.6 351.9 98 384.2 98 423C98 467.2 133.8 503 178 503H434C478.2 503 514 467.2 514 423C514 383.8 485.8 351.3 448.5 344.5Z" fill="#BDD9BF"/>
<path d="M665.9 342.8C595.5 356.1 530.9 302.5 530.9 232C530.9 191.4 552.8 154 588.4 133.9C593.9 130.8 592.5 122.5 586.3 121.4C577.6 119.8 568.7 119 559.8 119C481.9 119 418.7 180.2 415.4 256.9C442.1 268.8 463.6 290.7 474.3 318.6C511.4 332.9 538.3 366 544.5 405.4C549.6 405.9 554.5 406.9 559.7 406.9C604.4 406.9 645.3 386.7 672.3 353.6C676.5 348.8 672.1 341.6 665.9 342.8Z" fill="#FFC857"/>
<path d="M440.7 543.1C445.1 535.3 454.9 532.8 462.5 537.1C470.2 541.5 472.8 551.2 468.5 558.9L431.9 622.9C428.9 628.1 423.5 631 418 631C415.3 631 412.6 630.3 410.1 628.9C402.4 624.5 399.7 614.8 404.1 607.1L440.7 543.1Z" fill="#BDD9BF"/>
<path d="M344.7 543.1C349.1 535.3 358.9 532.8 366.5 537.1C374.2 541.5 376.8 551.2 372.5 558.9L335.9 622.9C332.9 628.1 327.5 631 322 631C319.3 631 316.6 630.3 314.1 628.9C306.4 624.5 303.7 614.8 308.1 607.1L344.7 543.1Z" fill="#BDD9BF"/>
<path d="M248.7 543.1C253.1 535.3 262.9 532.8 270.5 537.1C278.2 541.5 280.8 551.2 276.5 558.9L239.9 622.9C236.9 628.1 231.5 631 226 631C223.3 631 220.6 630.3 218.1 628.9C210.4 624.5 207.7 614.8 212.1 607.1L248.7 543.1Z" fill="#BDD9BF"/>
<path d="M152.7 543.1C157.1 535.3 166.9 532.8 174.5 537.1C182.2 541.5 184.8 551.2 180.5 558.9L143.9 622.9C140.9 628.1 135.5 631 130 631C127.3 631 124.6 630.3 122.1 628.9C114.4 624.5 111.7 614.8 116.1 607.1L152.7 543.1Z" fill="#BDD9BF"/>
</svg>
